<?xml version="1.0" standalone="no"?>
<!DOCTYPE svg PUBLIC "-//W3C//DTD SVG 1.1//EN" "http://www.w3.org/Graphics/SVG/1.1/DTD/svg11.dtd" >
<!--
2013-9-30: Created.
-->
<svg>
<metadata>
Created by iconfont
</metadata>
<defs>

<font id="iconfont" horiz-adv-x="1024" >
  <font-face
    font-family="iconfont"
    font-weight="500"
    font-stretch="normal"
    units-per-em="1024"
    ascent="896"
    descent="-128"
  />
    <missing-glyph />
    
    <glyph glyph-name="close" unicode="&#58902;" d="M567.03071893 358.79631572999995l308.448144 306.77860054c14.57639787 14.5442912 14.6406112 38.078432 0.12842667 52.62272426-14.5442912 14.67271787-38.01421867 14.67271787-52.5906176 0.19264l-308.48025067-306.9070272L208.688912 718.2297472c-14.44797227 14.48007787-38.04632533 14.60850453-52.5906176 0.06421333C141.5540032 703.8138816000001 141.52189653 680.2476352 156.03408213 665.70334293l305.71908267-306.7143872L153.49765973 52.338780799999995c-14.57639787-14.48007787-14.6406112-38.01421867-0.16053333-52.62272427 7.28819947-7.3524128 16.7917536-10.98045867 26.35952213-10.98045866 9.5035552 0 19.00710933 3.62804587 26.26320214 10.852032l308.351824 306.7143872 308.57657066-309.53976854c7.28819947-7.3524128 16.7917536-10.98045867 26.35952214-10.98045866 9.5035552 0 19.00710933 3.62804587 26.23109546 10.852032 14.5442912 14.5442912 14.57639787 38.078432 0.06421334 52.62272426L567.03071893 358.79631572999995 567.03071893 358.79631572999995zM567.03071893 358.79631572999995"  horiz-adv-x="1024" />

    
    <glyph glyph-name="fenpeijiashiyuan" unicode="&#59102;" d="M755.377518-116.226726c-27.883047 0-54.264904 5.311982-79.156828 15.935947-24.896017 10.619872-46.63411 25.227568-65.220421 43.807738-18.587334 18.588357-33.194006 40.330544-43.812855 65.222467-10.621918 24.89397-15.931854 51.27992-15.931854 79.156828 0 27.883047 5.309936 54.271044 15.931854 79.156828 10.619872 24.896017 25.225521 46.472428 43.812855 64.72514 18.584264 18.260899 40.322357 32.69668 65.220421 43.318598 24.891923 10.617825 51.275827 15.927761 79.156828 15.927761 27.878954 0 54.266951-5.309936 79.159898-15.927761 24.88783-10.621918 46.462195-25.059745 64.721047-43.318598 18.254759-18.252713 32.692586-39.829124 43.314505-64.72514 10.621918-24.88476 15.927761-51.274804 15.927761-79.156828 0-27.878954-5.306866-54.262858-15.927761-79.156828-10.621918-24.889877-25.061792-46.632063-43.314505-65.222467-18.258852-18.579147-39.83117-33.18582-64.721047-43.807738C809.644469-110.912697 783.256472-116.226726 755.377518-116.226726L755.377518-116.226726zM855.941911 120.759733l-73.67907 0 0 68.703755c0 9.290597-2.991124 17.257036-8.964162 23.89727-5.973038 6.637164-13.608949 9.955746-22.901593 9.955746-9.29469 0-16.597003-3.317559-21.904892-9.955746-5.313006-6.637164-7.966439-14.605649-7.966439-23.89727l0-68.703755-64.721047 0c-9.295714 0-17.257036-3.319605-23.895223-9.955746-6.641257-6.643304-9.960863-14.605649-9.960863-23.902386 0-9.290597 3.319605-16.262382 9.960863-20.910239 6.635117-4.644787 14.59951-6.971785 23.895223-6.971785l64.721047 0 0-70.694085c0-9.293667 2.653433-17.257036 7.966439-23.90034 5.308913-6.637164 12.610202-9.953699 21.904892-9.953699 9.290597 0 16.928554 3.315512 22.901593 9.953699 5.973038 6.643304 8.964162 14.606673 8.964162 23.90034l0 70.694085 73.67907 0 0-1.988284c9.296737 0 17.263176 2.651386 23.902386 7.965415 6.635117 5.308913 9.955746 12.611226 9.955746 21.901823 0 9.296737-3.319605 17.257036-9.955746 23.90034C873.205087 117.442174 865.238648 120.759733 855.941911 120.759733L855.941911 120.759733zM610.001523 368.694545c-2.651386-10.621918-5.309936-20.246113-7.964392-28.878724-2.657526-7.302313-5.975085-14.769378-9.956769-22.405289-3.983731-7.630794-8.299013-13.440104-12.939707-17.424858-5.979178-4.647857-10.123568-9.626241-12.453636-14.933107-2.320858-5.311982-4.315282-10.787694-5.973038-16.431228-1.661849-5.644557-3.485381-11.446703-5.479805-17.426905-1.989307-5.973038-5.307889-11.94403-9.955746-17.920138-15.266705-19.916609-26.715455-39.166021-34.350342-57.753355-7.637957-18.587334-12.941753-36.513612-15.930831-53.770648-2.986007-17.259082-3.817955-34.352389-2.493797-51.27992 1.331321-16.924461 3.984754-33.351596 7.968485-49.288566 2.656503-11.94403 6.638187-24.397666 11.949146-37.33635 5.309936-12.9438 13.111622-26.223245 23.397896-39.832194 10.290367-13.605879 23.397896-26.879184 39.333844-39.825031 15.929808-12.94994 35.846416-25.39232 59.743686-37.343513-15.935947-3.319605-34.518165-6.303566-55.756885-8.959046-17.924231-1.995447-39.998993-3.818979-66.218144-5.478781-26.222221-1.657756-56.258305-2.489704-90.115414-2.489704-17.259082 0-37.33942 0.666172-60.238966 1.994424-22.905686 1.325182-46.468334 2.987031-70.696132 4.975315-24.228821 1.9934-48.124044 4.314259-71.694879 6.971785-23.563672 2.65548-45.140083 5.479805-64.720024 8.464789-19.587104 2.986007-36.180014 6.14086-49.78794 9.458419s-22.073738 6.303566-25.393343 8.959046c-5.973038 5.310959-10.618848 20.082384-13.939477 44.313252-3.318582 24.229844-2.319835 55.926754 2.984984 95.093798 3.320629 21.899776 12.116969 38.666648 26.390044 50.28015 14.270005 11.615549 31.032784 20.742417 50.284243 27.381627 19.24839 6.641257 39.328727 12.780071 60.239989 18.418488 20.910239 5.64865 39.331797 13.44522 55.259558 23.397896 12.617365 7.970532 22.239514 15.439644 28.876678 22.408359 6.637164 6.968715 11.286044 14.106276 13.939477 21.404496 2.656503 7.306406 3.984754 14.937201 3.984754 22.901593 0 7.967462-0.331551 16.59905-0.997724 25.89374-1.324158 13.941524-6.137791 24.889877-14.433734 32.862455-8.29799 7.960299-17.095353 15.927761-26.390044 23.895223-5.306866 3.986801-9.955746 9.956769-13.938454 17.921161-3.984754 7.962346-7.302313 15.597233-9.956769 22.899546-3.318582 8.632611-5.973038 18.256806-7.966439 28.878724-4.649903 1.324158-8.962116 3.317559-12.941753 5.973038-3.318582 2.65548-6.969739 6.637164-10.954493 11.95017-3.982708 5.308913-7.633864 13.277398-10.95347 23.89727-3.318582 9.956769-4.481058 19.247366-3.486404 27.881001 0.997724 8.626471 2.822278 15.929808 5.478781 21.906939 2.65548 7.302313 6.307659 13.607926 10.952446 18.914792 0 22.572088 1.329275 45.13906 3.981684 67.711148 2.659573 19.24839 6.804986 39.826054 12.450567 61.734016 5.640464 21.906939 14.771425 41.48688 27.380604 58.744939 11.945053 16.59905 24.728194 30.205952 38.335097 40.827871 13.605879 10.620895 27.714202 18.914792 42.317805 24.89397 14.604626 5.973038 29.205159 10.121522 43.809785 12.443403 14.604626 2.322905 28.545126 3.485381 41.820478 3.485381 17.259082 0 33.858132-1.989307 49.786916-5.974062 15.934924-3.983731 30.699186-9.295714 44.308135-15.934924 13.612019-6.635117 25.724895-14.105253 36.34579-22.400173 10.621918-8.30106 19.252483-16.763802 25.894763-25.39232 15.261589-19.25146 26.381857-40.49018 33.349549-63.72537 6.971785-23.231097 12.120039-45.13906 15.437597-65.715701 3.319605-23.89727 4.643764-47.794539 3.986801-71.695902 3.977591-3.318582 7.29515-7.297197 9.955746-11.945053 2.65548-3.984754 4.643764-9.29162 5.973038-15.935947 1.331321-6.636141 1.331321-14.933107 0-24.88783-1.329275-12.617365-3.982708-22.571065-7.966439-29.875424-3.984754-7.302313-8.29492-12.941753-12.94073-16.926508C621.617072 374.001411 615.974561 370.683852 610.001523 368.694545L610.001523 368.694545z"  horiz-adv-x="1024" />

    
    <glyph glyph-name="xinlang" unicode="&#58911;" d="M900.66168167 344.309165c-27.374754 65.621634-95.313265 74.12674-114.373257 77.251044-19.250336 3.246083-35.875766 13.122485-16.31433 32.748393 13.81325 13.875674 19.001661 54.626705 15.06379 68.375483-3.938894 13.750825-9.623633 64.62284-105.874291 67.12392-69.878792 2.001683-152.75215-45.873947-161.626687-37.372935-12.564756 11.624293 16.877175 37.372935 12.751007 78.62234-4.003366 41.00073-18.874765 49.626591-38.500673 62.751123-19.625908 13.249381-73.750145 23.375481-168.375715-23.376505-101.063498-50.125989-207.252983-181.623049-244.503115-229.248981-35.498148-45.37762-155.252207-256.376083 84.250794-382.754321 239.626827-126.376191 544.128239-39.375641 638.253388 47.37521C892.66416067 189.93192699999997 926.91381467 281.55906600000003 900.66168167 344.309165zM466.97292167 79.18339400000002c-166.814075-22.749188-314.000196 46.998615-328.688414 155.751604-14.875492 108.500221 108.373325 215.123608 275.250848 237.751017 166.812028 22.622292 314.000196-47.128581 328.81531-155.750581C757.03683767 208.30729399999996 633.78699667 101.80773299999998 466.97292167 79.18339400000002zM576.41053567 282.560931c-15.059696 75.372164-99.499811 122.122103-188.623823 104.122307-89.188483-17.752144-149.251252-93.249157-134.188485-168.624391 14.93587-75.251408 99.499811-122.001347 188.561398-104.249203C531.41053367 131.80944 591.40985467 207.18467399999997 576.41053567 282.560931zM374.53528567 179.43332499999997c-31.376073-7.377368-61.876154 7.998545-68.062337 34.249655-6.126828 26.250086 14.437496 53.499991 45.937395 60.874289 31.498876 7.372251 61.997933-8.000592 68.124761-34.125829C426.66193367 214.18237699999997 406.15798667 186.80762300000004 374.53528567 179.43332499999997zM453.40834767 259.808673c-12.996612-2.876652-25.495874 3.495782-27.811727 14.247152-2.31176 10.750347 6.437928 21.626567 19.56246 24.502196 13.125555 2.750779 25.562392-3.625748 27.811727-14.251246C475.28461367 273.43464800000004 466.53594867 262.557405 453.40834767 259.808673zM877.91249367 636.1854430000001c-29.748938 40.748984-94.810797 50.750235-119.374394 44.998979-24.624998-5.747163-37.125283-17.249677-37.125283-36.99941 0-19.624884 12.875856-30.75285 42.313694-29.250564 31.439521 1.501262 46.685468-11.499443 61.06361-29.499239 14.248176-18.001843 10.622428-44.877199 8.37207-63.127718-2.247288-18.377414 11.750165-38.871127 30.751826-38.871127 18.936166 0 31.37505 8.24722 34.250678 22.746118C917.41196067 569.68577 897.91397267 611.9349930000001 877.91249367 636.1854430000001zM940.03732267 759.935705c-96.688654 76.748576-200.375012 58.124534-216.251346 55.124056-15.936712-2.875628-37.625704-18.872718-37.625704-40.376483 0-22.622292 18.250518-40.750007 40.812432-40.750007 4.940759 0 68.501356 28.375595 163.93947-34.872878 95.378759-63.376393 61.376757-212.503819 61.376757-215.626076 0-22.627409 18.186047-40.876904 40.748984-40.876904 22.500513 0 35.250496 19.000638 40.688606 41.624976C1057.72932167 595.433389 1025.97665367 691.557151 940.03732267 759.935705z"  horiz-adv-x="1063" />

    
    <glyph glyph-name="weixin" unicode="&#59365;" d="M1024 259.968c0 141.888-141.866667 257.429333-301.461333 257.429333-169.088 0-301.866667-115.541333-301.866667-257.429333 0-142.250667 132.778667-257.386667 301.866667-257.386667 35.370667 0 71.146667 9.024 106.496 17.642667l97.450667-53.418667-26.666667 88.789333C970.922667 109.034667 1024 180.16 1024 259.968zM624.618667 304.384c-17.642667 0-35.328 17.664-35.328 35.392 0 17.621333 17.685333 35.328 35.328 35.328 26.752 0 44.458667-17.706667 44.458667-35.328C669.077333 322.048 651.370667 304.384 624.618667 304.384zM820.010667 304.384c-17.664 0-35.306667 17.664-35.306667 35.392 0 17.621333 17.642667 35.328 35.306667 35.328 26.709333 0 44.416-17.706667 44.416-35.328C864.426667 322.048 846.293333 304.384 820.010667 304.384zM693.248 548.757333c11.626667 0 23.296-0.810667 34.901333-2.005333-31.274667 146.133333-187.392 254.464-365.674667 254.464C163.370667 801.216 0 665.557333 0 492.970667c0-99.562667 54.208-181.418667 144.917333-244.864L108.8 138.965333l126.826667 63.786667c45.354667-8.810667 81.877333-18.069333 126.848-18.069333 11.221333 0 22.506667 0.405333 33.749333 1.557333-7.232 24.128-11.242667 49.749333-11.242667 75.882667C384.96 420.309333 521.066667 548.757333 693.248 548.757333zM498.133333 647.104c27.285333 0 45.333333-18.069333 45.333333-45.376 0-27.264-18.069333-45.333333-45.333333-45.333333-27.306667 0-54.570667 18.069333-54.570667 45.333333C443.968 629.056 471.210667 647.104 498.133333 647.104zM244.458667 556.437333c-27.306667 0-54.570667 18.048-54.570667 45.333333 0 27.306667 27.285333 45.354667 54.570667 45.354667 27.328 0 45.397333-18.069333 45.397333-45.354667C289.834667 574.869333 271.786667 556.437333 244.458667 556.437333z"  horiz-adv-x="1024" />

    
    <glyph glyph-name="xiangshang2" unicode="&#59246;" d="M887.328477 257.5143486666666L533.951458 607.6591136666667c-0.512619 0.512619-1.216181 0.672598-1.759763 1.152533-0.127295 0.127295-0.159978 0.319957-0.287273 0.447252-12.576374 12.416396-32.831716 12.352748-45.280796-0.192662L136.511544 255.72190166666667c-12.447359-12.576374-12.352748-32.800753 0.192662-45.248112 6.239161-6.175514 14.399785-9.280473 22.527725-9.280473 8.224271 0 16.479505 3.168606 22.720387 9.471415L509.792985 541.4813416666667l332.480043-329.407768c6.239161-6.175514 14.368821-9.280473 22.527725-9.280473 8.255235 0 16.479505 3.168606 22.720387 9.471415C899.968499 224.80992666666668 899.872168 245.0669896666666 887.328477 257.5143486666666z"  horiz-adv-x="1024" />

    
    <glyph glyph-name="xiangxia2" unicode="&#59250;" d="M890.335385 586.4221113333333c-12.576374 12.416396-32.800753 12.352748-45.248112-0.192662L517.248327 255.38187533333337 184.831931 584.8206063333333c-12.576374 12.447359-32.800753 12.352748-45.280796-0.192662-12.447359-12.576374-12.352748-32.831716 0.192662-45.280796l353.311652-350.112082c0.543583-0.543583 1.247144-0.672598 1.792447-1.183497 0.127295-0.127295 0.159978-0.287273 0.287273-0.416288 6.239161-6.175514 14.399785-9.280473 22.527725-9.280473 8.224271 0 16.479505 3.168606 22.720387 9.471415l350.112082 353.311652C902.975407 553.7176903333334 902.880796 573.9730323333333 890.335385 586.4221113333333z"  horiz-adv-x="1024" />

    
    <glyph glyph-name="qian" unicode="&#58993;" d="M883.25 603.375l0-478.125 0 0c-5.625-106.875-168.75-191.25-365.625-191.25-202.5 0-360 84.375-365.625 191.25l0 0L152 603.375c0 11.25 0 16.875 0 28.125C140.75 744 303.875 834 512 834c208.125 0 371.25-90 371.25-202.5C883.25 620.25 883.25 609 883.25 603.375zM512 766.5c-180 0-315-73.125-315-140.625 0-67.5 135-140.625 315-140.625 180 0 315 73.125 315 140.625C827 693.375 692 766.5 512 766.5zM827 513.375c-67.5-56.25-185.625-90-320.625-90-129.375 0-253.125 33.75-315 90l0-33.75C208.25 406.5 354.5 350.25 512 350.25c157.5 0 303.75 61.875 320.625 129.375L832.625 513.375zM827 384c-61.875-56.25-185.625-90-320.625-90C377 294 258.875 333.375 191.375 384l0-28.125c16.875-73.125 163.125-129.375 315-129.375 157.5 0 303.75 61.875 320.625 129.375L827 384zM827 265.875c-61.875-56.25-185.625-90-320.625-90-129.375 0-253.125 33.75-315 90l0-28.125c16.875-73.125 163.125-129.375 315-129.375 157.5 0 303.75 61.875 320.625 129.375L827 265.875zM827 125.25l0 16.875c-61.875-56.25-185.625-90-320.625-90-129.375 0-253.125 33.75-315 90l0-16.875 0 0C202.625 52.125 348.875-9.75 512-9.75 669.5-9.75 821.375 52.125 827 125.25L827 125.25zM579.5 631.5C596.375 625.875 607.625 609 607.625 597.75c0-22.5-11.25-33.75-33.75-45C557 547.125 540.125 541.5 523.25 541.5l0-22.5L506.375 519 506.375 541.5c-22.5 0-45 5.625-56.25 11.25C427.625 564 416.375 575.25 416.375 597.75l50.625 0c0-11.25 5.625-16.875 5.625-22.5 5.625-5.625 16.875-11.25 28.125-11.25L500.75 620.25 489.5 625.875C467 625.875 450.125 631.5 438.875 642.75 427.625 648.375 422 659.625 422 670.875c0 5.625 0 16.875 5.625 22.5 5.625 5.625 11.25 11.25 16.875 16.875C455.75 715.875 461.375 715.875 472.625 721.5 483.875 721.5 489.5 721.5 506.375 721.5L506.375 738.375l16.875 0L523.25 721.5C540.125 721.5 557 715.875 568.25 710.25c22.5-11.25 33.75-22.5 33.75-39.375L551.375 670.875c0 5.625-5.625 11.25-5.625 16.875C540.125 693.375 534.5 693.375 523.25 693.375l0-45C551.375 642.75 573.875 637.125 579.5 631.5zM523.25 569.625c11.25 0 16.875 0 22.5 5.625 5.625 5.625 11.25 11.25 11.25 16.875 0 5.625-5.625 11.25-11.25 16.875C540.125 609 534.5 614.625 523.25 614.625L523.25 569.625zM506.375 693.375c-11.25 0-16.875 0-22.5-5.625C472.625 687.75 472.625 682.125 472.625 676.5c0-5.625 5.625-11.25 11.25-16.875 5.625 0 11.25-5.625 22.5-5.625L506.375 693.375z"  horiz-adv-x="1024" />

    
    <glyph glyph-name="a2" unicode="&#58886;" d="M512-37.875L512-37.875c-230.625 0-421.875 191.25-421.875 421.875l0 0c0 230.625 191.25 421.875 421.875 421.875l0 0c230.625 0 421.875-191.25 421.875-421.875l0 0C933.875 153.375 742.625-37.875 512-37.875zM962 384L962 384c0 247.5-202.5 450-450 450l0 0C264.5 834 62 631.5 62 384l0 0c0-247.5 202.5-450 450-450l0 0C759.5-66 962 136.5 962 384zM512-37.875L512-37.875c-230.625 0-421.875 191.25-421.875 421.875l0 0c0 230.625 191.25 421.875 421.875 421.875l0 0c230.625 0 421.875-191.25 421.875-421.875l0 0C933.875 153.375 742.625-37.875 512-37.875zM157.625 586.5C146.375 592.125 118.25 564 107 524.625c0-5.625 0-5.625-5.625-45C95.75 445.875 90.125 434.625 90.125 417.75 84.5 389.625 84.5 384 84.5 372.75c0-5.625 0-39.375 16.875-45C107 327.75 118.25 333.375 135.125 344.625c11.25 11.25 11.25 11.25 16.875 16.875C163.25 367.125 174.5 355.875 191.375 344.625 225.125 316.5 253.25 316.5 287 299.625c22.5-11.25 28.125-16.875 28.125-22.5 0 0 5.625-11.25 0-39.375-5.625-28.125-11.25-39.375-22.5-56.25-16.875-16.875-22.5-11.25-39.375-28.125-11.25-16.875-16.875-39.375-16.875-45 0-16.875 0-28.125 0-33.75 0-5.625 5.625-33.75 28.125-50.625 11.25-11.25 22.5-16.875 50.625-28.125 33.75-11.25 56.25-22.5 67.5-22.5 33.75-11.25 56.25-16.875 84.375-16.875 28.125 0 22.5 5.625 61.875 5.625 22.5 0 33.75 0 56.25 0 11.25 0 22.5 0 39.375 5.625 16.875 5.625 22.5 11.25 50.625 22.5 28.125 11.25 28.125 5.625 39.375 16.875 16.875 5.625 33.75 16.875 56.25 33.75 28.125 22.5 45 33.75 61.875 50.625 5.625 5.625 11.25 16.875 28.125 45 16.875 33.75 45 73.125 56.25 135 5.625 33.75 11.25 56.25 11.25 78.75 5.625 39.375 5.625 78.75-5.625 118.125-5.625 16.875-5.625 16.875-16.875 50.625-5.625 22.5-5.625 28.125-11.25 28.125-11.25 0-22.5-22.5-33.75-39.375-16.875-28.125-11.25-33.75-22.5-39.375-16.875-16.875-33.75-5.625-56.25-22.5-5.625-5.625-28.125-16.875-22.5-33.75 0-22.5 45-22.5 56.25-56.25 0-5.625 0-11.25-16.875-56.25-11.25-33.75-22.5-50.625-39.375-78.75-5.625-11.25-16.875-22.5-28.125-39.375-16.875-28.125-28.125-28.125-45-50.625-28.125-39.375-28.125-56.25-39.375-56.25-16.875 0-22.5 90-28.125 112.5 0 33.75 0 45-5.625 73.125-5.625 22.5-5.625 22.5-11.25 56.25-5.625 33.75-5.625 45-11.25 56.25C579.5 384 557 389.625 545.75 395.25 500.75 412.125 489.5 395.25 461.375 406.5 433.25 417.75 416.375 440.25 416.375 445.875 405.125 457.125 399.5 468.375 399.5 479.625c0 33.75 39.375 61.875 45 61.875C472.625 558.375 489.5 552.75 495.125 569.625c11.25 16.875-5.625 45-16.875 61.875 0 0-28.125 28.125-61.875 22.5C416.375 648.375 399.5 642.75 393.875 631.5c-11.25-16.875 0-33.75-11.25-56.25C377 564 365.75 569.625 354.5 558.375 337.625 535.875 354.5 502.125 337.625 496.5 332 490.875 315.125 496.5 309.5 502.125 298.25 513.375 298.25 524.625 292.625 547.125 287 552.75 275.75 580.875 270.125 580.875c-11.25 0 0-33.75-22.5-56.25 0 0-16.875-5.625-39.375-16.875 0 0-11.25-5.625-28.125-5.625C163.25 502.125 157.625 496.5 152 502.125 146.375 507.75 163.25 552.75 163.25 552.75l0 0C163.25 552.75 163.25 586.5 157.625 586.5z"  horiz-adv-x="1024" />

    
    <glyph glyph-name="bofang" unicode="&#59071;" d="M512 768c51.9 0 102.2-10.1 149.5-30.2 45.7-19.3 86.8-47 122.1-82.3 35.3-35.3 63-76.4 82.3-122.1 20-47.3 30.2-97.6 30.2-149.5s-10.1-102.2-30.2-149.5c-19.3-45.7-47-86.8-82.3-122.1-35.3-35.3-76.4-63-122.1-82.3-47.3-20-97.6-30.2-149.5-30.2s-102.2 10.1-149.5 30.2c-45.7 19.3-86.8 47-122.1 82.3s-63 76.4-82.3 122.1c-20 47.3-30.2 97.6-30.2 149.5s10.1 102.2 30.2 149.5c19.3 45.7 47 86.8 82.3 122.1s76.4 63 122.1 82.3C409.8 757.9 460.1 768 512 768M512 832C264.6 832 64 631.4 64 384s200.6-448 448-448 448 200.6 448 448S759.4 832 512 832L512 832zM431 579.7l291-168c21.3-12.3 21.3-43.1 0-55.4l-291-168c-21.3-12.3-48 3.1-48 27.7L383 552C383 576.6 409.7 592 431 579.7z"  horiz-adv-x="1024" />

    
    <glyph glyph-name="qq" unicode="&#58928;" d="M116.435 302.286c-33.54-78.964-38.985-154.297-12.059-168.37 18.572-9.696 47.686 12.382 74.936 52.909 10.791-44.157 37.493-84.137 75.633-116.21-40.004-14.768-66.135-38.886-66.135-66.232 0-44.954 70.709-81.302 157.978-81.302 78.716 0 143.907 29.538 155.94 68.371 3.232 0.049 15.663 0.049 18.796 0 12.083-38.784 77.324-68.371 155.989-68.371 87.267 0 157.978 36.398 157.978 81.302 0 27.297-26.105 51.464-66.135 66.232 38.089 32.123 64.889 72.053 75.631 116.21 27.251-40.527 56.29-62.605 74.887-52.909 26.95 14.073 21.631 89.456-12.032 168.37-26.355 62.058-62.11 107.754-89.457 117.848 0.398 3.929 0.596 7.958 0.596 11.935 0 23.968-6.661 46.146-18.049 64.196 0.199 1.393 0.199 2.834 0.199 4.227 0 11.038-2.636 21.381-7.114 30.332-6.909 161.309-111.93 289.402-281.866 289.402-170.036 0-275.106-128.093-281.943-289.402-4.525-9.001-7.135-19.343-7.135-30.332 0-1.393 0.099-2.835 0.15-4.227-11.288-18.05-17.951-40.178-17.951-64.196 0-3.978 0.15-7.955 0.498-11.935-27.151-10.094-63.028-55.841-89.333-117.848z"  horiz-adv-x="1024" />

    
    <glyph glyph-name="rili" unicode="&#59043;" d="M845.975 743.381h-131.813v68.738c0 10.356-8.394 18.75-18.75 18.75s-18.75-8.394-18.75-18.75v-68.756h-318.75v68.756c0 10.356-8.394 18.75-18.75 18.75s-18.75-8.394-18.75-18.75v-68.756h-131.794c-57.281 0-104.137-46.856-104.137-104.137v-591.731c0-57.281 46.856-104.137 104.137-104.137h657.356c57.281 0 104.137 46.856 104.137 104.137v591.75c0 57.262-46.875 104.137-104.137 104.137zM188.619 705.881h131.794v-62.494c0-10.356 8.394-18.75 18.75-18.75s18.75 8.394 18.75 18.75v62.494h318.75v-62.494c0-10.356 8.394-18.75 18.75-18.75s18.75 8.394 18.75 18.75v62.494h131.813c36.786-0.043 66.594-29.852 66.637-66.634v-130.241h-790.631v130.238c0.043 36.786 29.852 66.594 66.634 66.637zM845.975-19.125h-657.356c-36.786 0.043-66.594 29.852-66.637 66.634v423.998h790.631v-423.994c-0.043-36.786-29.852-66.594-66.634-66.637zM313.719 321.506h-59.044c-10.356 0-18.75-8.394-18.75-18.75s8.394-18.75 18.75-18.75h59.044c10.356 0 18.75 8.394 18.75 18.75s-8.394 18.75-18.75 18.75zM313.719 174.619h-59.044c-10.356 0-18.75-8.394-18.75-18.75s8.394-18.75 18.75-18.75h59.044c10.356 0 18.75 8.394 18.75 18.75s-8.394 18.75-18.75 18.75zM542.9 321.506h-59.044c-10.356 0-18.75-8.394-18.75-18.75s8.394-18.75 18.75-18.75h59.044c10.356 0 18.75 8.394 18.75 18.75s-8.394 18.75-18.75 18.75zM542.9 174.619h-59.044c-10.356 0-18.75-8.394-18.75-18.75s8.394-18.75 18.75-18.75h59.044c10.356 0 18.75 8.394 18.75 18.75s-8.394 18.75-18.75 18.75zM772.081 321.506h-59.044c-10.356 0-18.75-8.394-18.75-18.75s8.394-18.75 18.75-18.75h59.044c10.356 0 18.75 8.394 18.75 18.75s-8.394 18.75-18.75 18.75z"  horiz-adv-x="1024" />

    
    <glyph glyph-name="feedback" unicode="&#58895;" d="M736.58039346 192.15290888000004H789.42573301v57.55221299c0-49.20821104-7.91610381-57.55221211-52.84533955-57.55221299z m0 0zM1003.37447832 765.1076481499999A85.57949795 85.57949795 0 0 1 919.07867217 833.99914394H275.94874531a42.78974941 42.78974941 0 1 1 0-85.57949795h641.84623506v-427.89748974a42.78974941 42.78974941 0 0 1 85.57949795 0zM205.77355684 192.15290888000004zM875.00523096 632.45942636A85.57949795 85.57949795 0 0 1 791.13732295 705.6298974700001H143.7284208A85.57949795 85.57949795 0 0 1 62 620.05039951v-432.17646503A85.57949795 85.57949795 0 0 1 147.57949795 106.57341094000003h171.1589959a42.78974941 42.78974941 0 1 1 0 85.57949794H147.57949795h57.98011025c-45.78503115 0-55.62667354 6.84635977-57.98011025 42.78974942V566.99111045c1.49764131 42.78974941 10.26953965 50.91980097 58.19405889 52.20349366H789.42573301v-62.47303331V620.05039951h-56.48246895c49.20821104-1.06974404 56.0545708-9.1997956 56.91036622-66.11016269V192.15290888000004H487.75800253a42.78974941 42.78974941 0 0 1-35.72944013-19.25538661l-165.38238018-165.81027745a42.78974941 42.78974941 0 0 1 60.54749473-60.54749472L507.86918457 106.57341094000003h282.84024111a85.57949795 85.57949795 0 0 1 85.57949796 75.73785557v176.50771523 3.20923125zM147.57949795 620.05039951z m769.14573838 42.78974854V699.85328086z m-58.40800752 85.57949794c48.56636513 0 56.69641758-7.48820566 58.19405888-48.35241649V747.99174873z m0 0z"  horiz-adv-x="1071" />

    
    <glyph glyph-name="icon_feedback" unicode="&#58912;" d="M65.5 679.6c0 15.1 12.3 27.4 27.4 27.4h753.2c15.1 0 27.4-12.3 27.4-27.4 0-15.1-12.3-27.4-27.4-27.4H92.9c-15.1 0-27.4 12.2-27.4 27.4zM226.6 511c0 15.1 12.3 27.4 27.4 27.4h436.1c15.1 0 27.4-12.3 27.4-27.4 0-15.1-12.3-27.4-27.4-27.4h-436c-15.2 0-27.5 12.2-27.5 27.4zM226.6 370.5c0 15.1 12.3 27.4 27.4 27.4h436.1c15.1 0 27.4-12.3 27.4-27.4 0-15.1-12.3-27.4-27.4-27.4h-436c-15.2 0-27.5 12.3-27.5 27.4zM210 785.6v5c0 13.8 11.2 24.9 24.9 24.9h700.7c13.8 0 24.9-11.2 24.9-24.9v-5c0-13.8-11.2-24.9-24.9-24.9H234.9c-13.8-0.1-24.9 11.1-24.9 24.9zM933.1 815.5c15.1 0 27.4-12.3 27.4-27.4v-571.4c0-15.1-12.3-27.4-27.4-27.4-15.1 0-27.4 12.3-27.4 27.4V788.1c0 15.1 12.3 27.4 27.4 27.4zM496.3 172.20000000000005c0 15.1 12.3 27.4 27.4 27.4h322.4c15.1 0 27.4-12.3 27.4-27.4 0-15.1-12.3-27.4-27.4-27.4H523.7c-15.1 0-27.4 12.3-27.4 27.4zM65.5 172.20000000000005c0 15.1 12.3 27.4 27.4 27.4H336c15.1 0 27.4-12.3 27.4-27.4 0-15.1-12.3-27.4-27.4-27.4H92.9c-15.2 0-27.4 12.3-27.4 27.4zM309-42.299999999999955c-10.7 10.7-10.7 28.1 0 38.8l195.1 195.1c10.7 10.7 28.1 10.7 38.8 0 10.7-10.7 10.7-28.1 0-38.8L347.7-42.299999999999955c-10.7-10.7-28-10.7-38.7 0zM92.9 144.79999999999995c-15.1 0-27.4 12.3-27.4 27.4V679.6c0 15.1 12.3 27.4 27.4 27.4 15.1 0 27.4-12.3 27.4-27.4v-507.4c0-15.1-12.3-27.4-27.4-27.4zM846.1 144.79999999999995c-15.1 0-27.4 12.3-27.4 27.4V679.6c0 15.1 12.3 27.4 27.4 27.4 15.1 0 27.4-12.3 27.4-27.4v-507.4c0-15.1-12.3-27.4-27.4-27.4z"  horiz-adv-x="1024" />

    
    <glyph glyph-name="jiantou" unicode="&#59057;" d="M945.557 422.032h-733.558l187.319 180.328c4.795 4.796 4.795 12.57 0 17.367l-37.627 37.627c-4.796 4.795-12.57 4.795-17.367 0l-235.807-227.011c-0.272-0.229-0.541-0.465-0.797-0.721l-1.259-1.259-36.367-35.009c-2.567-2.568-3.746-5.99-3.564-9.352-0.188-3.369 0.991-6.8 3.562-9.372l37.627-36.267c0.243-0.241 0.496-0.463 0.752-0.68l235.852-227.050c4.796-4.797 12.57-4.797 17.367 0l37.627 37.627c4.795 4.795 4.795 12.569 0 17.367l-185.562 178.637h731.8c6.783 0 12.28 5.498 12.28 12.28v53.213c0 6.781-5.497 12.28-12.28 12.28z"  horiz-adv-x="1024" />

    
    <glyph glyph-name="xiangyou" unicode="&#59288;" d="M352.2443333333333 762.335c-12.416-12.576-12.353-32.801 0.193-45.248l330.848-327.839-329.439-332.416c-12.447-12.576-12.353-32.801 0.193-45.281 12.576-12.447 32.832-12.353 45.281 0.193l350.112 353.312c0.544 0.544 0.673 1.247 1.183 1.793 0.127 0.127 0.287 0.16 0.416 0.287 6.176 6.24 9.28 14.4 9.28 22.528 0 8.224-3.169 16.48-9.471 22.719l-353.312 350.112c-12.58 12.48-32.835 12.385-45.284-0.161z"  horiz-adv-x="1024" />

    
    <glyph glyph-name="xiangzuo" unicode="&#59289;" d="M714.4223333333334 5.664999999999964c12.416 12.576 12.353 32.801-0.193 45.248l-330.848 327.839 329.439 332.416c12.447 12.576 12.353 32.801-0.193 45.281-12.576 12.447-32.832 12.353-45.281-0.193l-350.112-353.312c-0.544-0.544-0.673-1.247-1.183-1.793-0.127-0.127-0.287-0.16-0.416-0.287-6.176-6.24-9.28-14.4-9.28-22.528 0-8.224 3.169-16.48 9.471-22.719l353.312-350.112c12.58-12.48 32.835-12.385 45.284 0.161z"  horiz-adv-x="1024" />

    
    <glyph glyph-name="wo" unicode="&#59307;" d="M512 368.576c-141.184 0-256 114.816-256 256s114.816 256 256 256 256-114.816 256-256-114.816-256-256-256z m0 448c-105.856 0-192-86.144-192-192s86.144-192 192-192 192 86.144 192 192-86.144 192-192 192zM867.712-112.576H156.352A108.416 108.416 0 0 0 48-4.288c0 188.288 151.36 339.712 337.344 339.712h253.312a337.792 337.792 0 0 0 337.344-337.344c0-62.08-48.576-110.656-108.288-110.656z m-482.368 384A273.664 273.664 0 0 1 112-1.92c0-26.752 19.904-46.656 44.352-46.656h711.36a44.352 44.352 0 0 1 44.288 44.288c0 153.088-122.624 275.712-273.344 275.712H385.344z"  horiz-adv-x="1024" />

    
    <glyph glyph-name="fahuo" unicode="&#59006;" d="M985.6 633.6H627.2V256c0-12.8-12.8-25.6-25.6-25.6L512 294.4l-89.6-64c-12.8 0-25.6 12.8-25.6 25.6V633.6H38.4c-19.2 0-38.4-19.2-38.4-38.4v-601.6c0-19.2 19.2-38.4 38.4-38.4h947.2c19.2 0 38.4 19.2 38.4 38.4V595.2c0 19.2-19.2 38.4-38.4 38.4zM230.4 480H121.6c-19.2 0-38.4 19.2-38.4 38.4s19.2 38.4 38.4 38.4h108.8c19.2 0 38.4-19.2 38.4-38.4s-19.2-38.4-38.4-38.4zM985.6 812.8H44.8c-25.6 0-44.8-19.2-44.8-38.4s19.2-38.4 38.4-38.4h940.8c19.2 0 38.4 19.2 38.4 38.4 6.4 19.2-12.8 38.4-32 38.4z"  horiz-adv-x="1024" />

    
    <glyph glyph-name="bingtu" unicode="&#58885;" d="M440-96c-108.96 0-211.44 42.43125-288.48 119.52S32 203.03999999999996 32 312c0 108.96 42.43125 211.44 119.52 288.48S331.04 720 440 720c13.2478125 0 24-10.7521875 24-24v-360h360c13.2478125 0 24-10.7521875 24-24 0-108.96-42.43125-211.44-119.52-288.48S548.96-96 440-96z m-24 767.23125C228.655625 658.84875 80 502.4653125 80 312c0-198.5278125 161.4721875-360 360-360 190.415625 0 346.8 148.655625 359.23125 336H440c-13.2478125 0-24 10.7521875-24 24V671.23125zM920 384H536c-13.2478125 0-24 10.7521875-24 24V792c0 13.2478125 10.7521875 24 24 24 108.96 0 211.44-42.43125 288.48-119.52S944 516.96 944 408c0-13.2478125-10.7521875-24-24-24z m-360 48h335.23125C883.3765625 611.424375 739.4253125 755.3278124999999 560 767.23125V432z"  horiz-adv-x="1024" />

    
    <glyph glyph-name="friends" unicode="&#59072;" d="M931.366 258.919c-36.312 52.279-85.365 91.658-142.431 114.26 25.23 17.713 46.35 41.173 61.592 68.717 17.74 31.758 27.049 68.146 27.049 104.976 0 115.093-89.366 208.831-199.231 208.831-15.607 0-28.299-12.64-28.299-28.246 0-15.606 12.691-28.247 28.299-28.247 78.651 0 142.584-68.301 142.584-152.338 0-84.038-63.933-152.339-142.584-152.339-15.607 0-28.299-12.641-28.299-28.246v-0.157c0-15.553 12.691-28.246 28.299-28.246 141.44 0 256.402-122.401 256.402-272.787 0-15.606 12.64-28.196 28.351-28.196 15.606 0 28.299 12.59 28.299 28.196 0.103 70.121-20.705 137.173-60.031 193.822z m-292.453 47.91c-29.755 20.964-62.006 37.505-96.233 49.34 72.147 43.696 116.521 121.568 116.521 206.152 0 133.091-108.513 241.291-241.888 241.291-133.405 0-241.865-108.2-241.865-241.291 0-45.231 12.666-89.5 36.75-127.734 20.29-32.33 48.041-59.457 80.735-79.12-34.801-11.809-67.625-28.508-97.77-49.888-32.824-23.201-61.695-51.29-85.936-83.334-50.145-66.638-76.623-146.173-76.623-229.665 0-15.604 12.666-28.192 28.299-28.192 15.657 0 28.323 12.588 28.323 28.192 0 87.184 34.099 169.062 95.793 231.069 61.696 61.695 143.263 95.82 229.77 95.82 2.809-0.261 5.773 0 8.584 0.571l2.26 0.573c84.248-1.664 163.445-35.582 223.58-95.82 61.799-61.851 95.768-143.937 95.768-231.068 0-15.605 12.692-28.248 28.352-28.248 15.604 0 28.299 12.643 28.299 28.248 0 83.49-26.53 162.872-76.781 229.612-24.087 32.201-53.113 60.343-85.938 83.492zM417.467 747.12c102.115 0 185.24-82.919 185.24-184.798 0-101.88-83.125-184.798-185.24-184.798-102.139 0-185.267 82.917-185.267 184.798 0 101.879 83.128 184.798 185.267 184.798z"  horiz-adv-x="1024" />

    
    <glyph glyph-name="xinjian" unicode="&#58995;" d="M174.1 73.4v478h282v225h336.4v-381.1h55.8V806.1c0 14.4-12.8 26.2-28.6 26.2l-442.8-0.2-257.4-196.4v-614.8c0-14.4 12.8-26.2 28.6-26.2h279.7v52.6H210.2c-17.8 0.1-36.1 11.7-36.1 26.1z m227.7 704.3v-168.8H178l223.8 168.8zM764.9 189.2h-56.6v56.6c0 15.4-12.6 27.5-28 27.5-15 0-28-12.3-28-27.5v-56.6h-56.6c-15.4 0-27.5-12.5-27.5-28 0-15 12.3-28 27.5-28h56.6v-56.6c0-15.4 12.6-27.5 28-27.5 15 0 28 12.3 28 27.5v56.6h56.6c15.4 0 27.5 12.6 27.5 28 0 15-12.4 28-27.5 28zM680.2 385.5c-123.9 0-224.3-100.4-224.3-224.3s100.4-224.3 224.3-224.3 224.3 100.4 224.3 224.3-100.4 224.3-224.3 224.3z m0-392.5C587.3-7 512 68.3 512 161.2s75.3 168.2 168.2 168.2 168.2-75.3 168.2-168.2S773.1-7 680.2-7z"  horiz-adv-x="1024" />

    
    <glyph glyph-name="shouye" unicode="&#59112;" d="M905.216 549.888l-368.64 276.48c-14.336 10.752-34.816 10.752-49.152 0l-368.64-276.48c-10.24-7.68-16.384-19.968-16.384-32.768v-552.96c0-22.528 18.432-40.96 40.96-40.96h266.24v311.808c0 25.6 20.992 46.592 46.592 46.592H568.32c25.6 0 46.592-20.992 46.592-46.592V-76.8h266.24c22.528 0 40.96 18.432 40.96 40.96V517.12c-0.512 12.8-6.656 25.088-16.896 32.768zM880.64-99.84h-266.24c-12.8 0-23.04 10.24-23.04 23.04v311.808c0 12.8-10.752 23.552-23.552 23.552H456.192c-12.8 0-23.552-10.752-23.552-23.552V-76.8c0-12.8-10.24-23.04-23.04-23.04H143.36c-35.328 0-64 28.672-64 64V517.12c0 19.968 9.728 39.424 25.6 51.2l368.64 276.48c22.528 16.896 54.272 16.896 76.8 0l368.64-276.48c15.872-11.776 25.6-31.232 25.6-51.2v-552.96c0-35.328-28.672-64-64-64z m-243.2 46.08H880.64c9.728 0 17.92 8.192 17.92 17.92V517.12c0 5.632-2.56 10.752-7.168 14.336l-368.64 276.48c-6.144 4.608-15.36 4.608-21.504 0l-368.64-276.48c-4.608-3.584-7.168-8.704-7.168-14.336v-552.96c0-9.728 8.192-17.92 17.92-17.92h243.2v288.768c0 38.4 31.232 69.632 69.632 69.632H568.32c38.4 0 69.632-31.232 69.632-69.632v-288.768z"  horiz-adv-x="1024" />

    
    <glyph glyph-name="location" unicode="&#58887;" d="M512-35.60742187999995c-8.67480469 0-26.68359375 0-83.00390625 55.95117188-34.40917969 34.19824219-71.9296875 78.49511719-105.65332031 124.76953125-53.26171875 73.03710938-142.59375 214.23339844-142.59375 339.00292969 0 80.10351563 37.15136719 161.20898438 101.96191406 222.56542969C347.75878906 768.27539063 434.55957031 803.60742188 520.83300781 803.60742188c53.86816406 0 107.18261719-13.73730469 154.14257813-39.70898438a26.3671875 26.3671875 0 1 0-25.5234375-46.14257813 262.88085938 262.88085938 0 0 1-128.61914063 33.1171875c-150.37207031 0-287.34960938-127.14257813-287.34960937-266.75683593 0-106.25976563 78.54785156-232.37402344 125.34960937-298.08105469 65.10058594-91.38867188 130.41210938-154.01074219 152.69238281-167.22070313 22.359375 14.02734375 87.59179688 77.4140625 152.53417969 167.95898438 81.52734375 113.66894531 126.43066406 219.26953125 126.43066406 297.34277344 0 49.38574219-14.84472656 98.42871094-42.95214843 141.82910156a26.3671875 26.3671875 0 0 0 44.27050781 28.66113281c33.61816406-51.96972656 51.41601563-110.92675781 51.41601562-170.49023437 0-124.13671875-90.41308594-265.72851563-144.30761718-339.08203125-33.64453125-45.79980469-71.19140625-90.0703125-105.75878907-124.61132813-55.97753906-56.00390625-73.01074219-56.00390625-81.18457031-56.00390625zM512 291.34570312000005c-107.12988281 0-194.2734375 87.14355469-194.2734375 194.27343751S404.87011719 679.89257813 512 679.89257813s194.2734375-87.14355469 194.2734375-194.27343751c0-107.12988281-87.14355469-194.2734375-194.2734375-194.27343749z m0 335.81250001c-78.046875 0-141.5390625-63.4921875-141.5390625-141.53906251S433.953125 344.08007812000005 512 344.08007812000005s141.5390625 63.4921875 141.5390625 141.53906251A141.69726563 141.69726563 0 0 1 512 627.15820312z"  horiz-adv-x="1024" />

    
    <glyph glyph-name="gongsi" unicode="&#59044;" d="M110.7-62.8v37.3h801.6v-37.3H110.7m577.9 55.9h-93.2L595 472l-111.5 80.3-261-111.8v-447.4H110.7v37.3h74.6V459.1l298.3 130.5 149.1-111.8v-447.4h55.9v-37.3zM277.7 382.5l131.3 58v-74.6L278.5 310l-0.8 72.5zM409 272.7v-74.6l-130.5-37.3-0.8 70.4L409 272.7zM278.5 86.3L409 123.6v-93.2H278.5v55.9z m447.4 652.5v-745.6h55.9V672.8l-55.9 66zM483.5 496.4v-503.3h55.9v466l-55.9 37.3z m428.8-503.3h-93.2V682.8l-93.2 111.8-354.2-149v-55.9l-37.3-37.3V664.2L744.5 832l111.8-149.1v-652.4h55.9v-37.4z m0 0"  horiz-adv-x="1024" />

    
    <glyph glyph-name="yuangong" unicode="&#59729;" d="M514.2769248 348.16627307c133.0483616-0.28052267 241.36382187 106.6541568 242.47936213 239.38925013 0.81864533 97.77567893-57.5583808 186.38908373-147.8494624 224.42223787C518.62338347 850.01200533 414.25597547 829.94974613 344.5903808 761.17265493c-69.6634112-68.7749088-90.8597664-172.68387627-53.69219413-263.1550592 37.1741216-90.4755488 125.37383787-149.64065813 223.37873813-149.85132266zM334.20232213 625.55702187c17.18281173 85.62589653 92.54399253 147.25676373 180.06914454 147.26440426 49.06084693 0.05566827 96.09691093-19.52304533 130.56841386-54.35474986 61.56428373-62.07511893 70.6687072-158.86624107 21.7519424-231.27920854-48.9145824-72.41514987-142.25320533-100.33094293-223.0272672-66.70537386-80.77733547 33.62556907-126.5450464 119.45121493-109.3622336 205.074928z m631.41649067-650.43415787L755.26635307 339.02473707c-7.08619093 12.00461013-22.53565867 16.07927893-34.64068907 9.1426272-129.51072427-72.83538773-287.75916053-72.83538773-417.26333547 0-12.10830507 6.93665173-27.5599552 2.86198293-34.640688-9.1426272L58.380096-24.865129600000046a25.35397973 25.35397973 0 0 1-0.04147733-25.33760747 25.4827808 25.4827808 0 0 1 21.93313493-12.7806848h863.77521813a25.464224 25.464224 0 0 1 21.61550187 12.76758614 25.35834667 25.35834667 0 0 1-0.0436608 25.33869973zM513.82612373 241.16391893000002c7.4758656-0.00327467 14.95282347 0.1822848 22.42213974 0.53812267l18.29180266-137.99297707-31.58877973-38.11829226-31.6007872 37.602 22.47562453 137.97114666z m251.08277547-250.79570346V121.63083946999996a5.4652736 5.4652736 0 0 1-5.4750976 5.46090773h-40.00117547a5.46745707 5.46745707 0 0 1-5.4729152-5.46090773v-131.46455574l-382.54187306-1.51940586V121.63083946999996a5.4630912 5.4630912 0 0 1-5.46964054 5.46090773H285.91755093a5.4630912 5.4630912 0 0 1-5.46964053-5.46090773v-133.1869856l-153.85613333-0.6112544L306.58669867 289.73139519999995a466.7837152 466.7837152 0 0 1 155.50979626-45.66947307l-23.22986986-144.43189226a25.3758112 25.3758112 0 0 1 5.61044693-20.31986027l58.5811424-71.15334507a25.50242773 25.50242773 0 0 1 19.3593152-9.14808426l-0.0120064 0.01855573a25.45767467 25.45767467 0 0 1 19.86469227 9.14481067l59.10070933 71.6543552a25.38454293 25.38454293 0 0 1 5.60608 19.31565546L587.3633632 246.95446827a466.7204064 466.7204064 0 0 1 134.07767147 42.77692693l172.7111648-298.84907093-129.24330027-0.5141088z m181.35059733-53.35054614h-2.2125248c-0.1058784-0.00218347-0.20957333-0.0120064-0.31545066-0.0120064l2.52797546 0.0120064z"  horiz-adv-x="1024" />

    
    <glyph glyph-name="a3" unicode="&#58882;" d="M512-28.499707029999968c-234.34980469 0-425.00039063 190.64970703-425.00039063 424.99951172C86.99960937 630.84960937 277.65019531 821.50019531 512 821.50019531S937.00039063 630.84960937 937.00039063 396.49980469 746.34980469-28.499707029999968 512-28.499707029999968z m0 805.24951172c-209.67539063 0-380.25-170.57460937-380.25-380.25 0-209.7 170.57460937-380.27460938 380.25-380.27460938 209.7 0 380.27460938 170.57460937 380.27460938 380.27460938 0 209.67539063-170.57460937 380.25-380.27460938 380.25zM277.15009766 407.67509766a67.10009766 67.10009766 0 1 1 134.20019531 0 67.10009766 67.10009766 0 1 1-134.20019531 0zM456.09980469 407.67509766a67.10009766 67.10009766 0 1 1 134.20019531 0 67.10009766 67.10009766 0 1 1-134.20019531 0zM635.02490234 407.67509766a67.10009766 67.10009766 0 1 1 134.20019532 0 67.10009766 67.10009766 0 1 1-134.20019532 0z"  horiz-adv-x="1024" />

    
    <glyph glyph-name="a1" unicode="&#59128;" d="M118.3 330.5l-4.6-26.3h139.2l6.2 26.3H118.3z m354.1-26.4l4.6 26.3H319.3l-6.2-26.3h159.3z m88.1 133l-21.7-106.7-6.2-26.3-21.7-106.7H291.5l-4.6-24.7h256.7l34 157.7 21.7 106.7H907l-23.2-106.7H637.9L582.2 66H263.6l-4.6-24.7h357.2l34 156.2 21.7 106.7h207.2l-21.7-106.7H710.5l-32.4-156.2-23.2-106.7H175.5l55.7 262.9h-201l23.2 106.7 4.6 26.3 23.2 106.7h199.5L336.3 700h219.6l27.9 133h406.7l-23.2-106.7H620.9l-4.6-26.3-21.7-106.7H375l-6.2-24.7H627l4.6 24.7L654.9 700h307.7l-23.2-106.7H693.5l-27.8-131.5H347.2L341 437l219.5 0.1z m0 0"  horiz-adv-x="1024" />

    
    <glyph glyph-name="sousuo" unicode="&#58884;" d="M923.7 14.6L793 145.2c-11.5 11.5-27.5 14.9-42.3 11.6 74.5 71.5 121.2 171.8 121.2 282.9 0 216.4-176.1 392.5-392.5 392.5S86.9 656.1 86.9 439.7 263 47.2 479.4 47.2c89.5 0 171.8 30.4 237.9 81.1-5.9-16.3-2.6-35.3 10.5-48.4l130.6-130.6c18-18 47.3-18 65.3 0s18 47.2 0 65.3zM479.3 116.5c-178.2 0-323.3 145-323.3 323.2S301.1 763 479.3 763c178.2 0 323.3-145 323.3-323.3s-145-323.2-323.3-323.2z"  horiz-adv-x="1024" />

    
    <glyph glyph-name="jiantou1" unicode="&#59366;" d="M78.443 345.96799999999996l733.558 0-187.319-180.328c-4.795-4.796-4.79500001-12.57 0-17.367l37.627-37.627c4.796-4.795 12.57-4.79500001 17.367 0l235.807 227.011c0.272 0.229 0.541 0.465 0.797 0.721l1.259 1.259 36.367 35.009c2.567 2.568 3.746 5.99 3.564 9.352 0.188 3.369-0.991 6.8-3.562 9.372l-37.627 36.267c-0.243 0.241-0.496 0.463-0.752 0.68l-235.852 227.05c-4.796 4.797-12.57 4.797-17.367 0l-37.627-37.627c-4.795-4.795-4.795-12.569 0-17.367l185.562-178.637-731.8 0c-6.783 0-12.28-5.498-12.28-12.28000001l0-53.21299999c0-6.781 5.497-12.28 12.28-12.28z"  horiz-adv-x="1024" />

    
    <glyph glyph-name="jieshoupeihao" unicode="&#58880;" d="M98.961896 342.829322l1.023306 0 61.739133 0 0 404.819932c0 22.978341 8.996908 43.446511 22.893406 58.71117 14.352893 15.255449 33.856086 24.800849 55.31584 24.800849l542.9325 0c21.468964 0 40.932248-9.546424 55.650461-24.800849l0.982374-0.785899c13.129019-15.263635 21.423939-35.468816 21.423939-57.924247l0-404.828119 62.923098 0c19.016099 0 34.428114-16.211217 34.428114-36.415374l0-0.785899 0-331.098907c0-20.468171-15.410991-36.777625-34.428114-36.777625l-0.978281 0L98.961896-62.255647c-19.012006 0-34.097586 16.309454-34.097586 36.777625l0 1.036609L64.86431 306.404738C64.865333 326.608895 79.950913 342.829322 98.961896 342.829322L98.961896 342.829322 98.961896 342.829322M202.898083 342.829322L202.898083 342.829322l97.55178 0c17.993816 0 33.163307-14.745842 34.637892-33.391505 6.78145-44.407396 28.78151-84.029812 59.974953-111.698988 31.197536-28.79072 71.965032-45.957705 116.612904-45.957705 44.358277 0 84.588537 17.166985 116.076692 45.957705 31.444153 28.445866 54.131875 68.51649 60.471256 114.303302 2.938935 17.863856 17.331737 30.78719 34.137495 30.78719l97.600899 0 0 404.819932c0 10.577916-3.966335 20.204158-9.773598 26.798343l-0.982374 1.38044c-6.825452 7.031137-16.152888 11.618619-26.328645 11.618619L239.934604 787.446655c-10.211573 0-19.4991-4.587482-26.078958-11.618619-6.579859-6.936993-10.957563-16.997116-10.957563-28.178783L202.898083 342.829322 202.898083 342.829322 202.898083 342.829322M317.054029 533.184741L317.054029 533.184741l136.558166-145.090493c13.208836-13.610996 35.07996-13.610996 48.288796 0l0 0L747.755422 648.868483c13.656021 14.481829 13.656021 37.20639 0 51.688219-13.168927 14.222933-35.124985 14.222933-48.25298 0L477.778594 465.624019 365.79001 584.434985c-13.083993 13.700023-35.07996 14.307867-48.248887 0C303.84417 570.476065 303.639508 547.228595 317.054029 533.184741L317.054029 533.184741 317.054029 533.184741M272.937253 270.069181"  horiz-adv-x="1024" />

    
    <glyph glyph-name="yemian-copy-copy" unicode="&#58881;" d="M562.805 815.3025a72.135 72.135 0 0 1-96.93 0L73.925 443.13a36.1575 36.1575 0 0 1 48.42-53.7075l6.2325 5.9175V6.899999999999977a72.315 72.315 0 0 1 72.315-72.405h210.4425v217.71a50.9175 50.9175 0 0 0 50.94 50.985h99.0225a50.9175 50.9175 0 0 0 50.94-50.985v-217.71h215.4375a72.315 72.315 0 0 1 72.3375 72.405V390.5925c16.065-14.535 38.8575-13.4325 52.2225 1.4625a36.1575 36.1575 0 0 1-2.61 51.075L562.805 815.28z"  horiz-adv-x="1024" />

    
    <glyph glyph-name="fahuo1" unicode="&#58883;" d="M239.158 795.02c85.459 0 154.738-69.28 154.738-154.74 0-85.457-69.277-154.737-154.738-154.737-85.46 0-154.74 69.28-154.74 154.737 0 85.46 69.28 154.74 154.74 154.74z m77.147-140.082v59.263l-99.341-88.577-54.954 49.169v-59.263l54.954-49.17 99.341 88.578zM932.298 273.23c-5.654-0.308-12.248-0.47-19.79-0.47H739.172c-4.397 0-8.793 2.2-13.19 6.595-4.397 4.402-6.596 8.166-6.596 11.309v0.94c-0.622 30.777-0.946 58.721-0.946 83.85v85.724c0 6.909 2.835 13.35 8.484 19.313 5.651 5.967 12.558 8.943 20.725 8.943 0.628 0 5.338 0.319 14.135 0.948 8.792 0.63 19.623 0.16 32.503-1.41 12.876-1.567 26.534-5.027 40.979-10.363 14.441-5.338 27.945-13.975 40.509-25.91 19.47-20.1 33.286-44.436 41.45-73.01 8.166-28.574 15.707-58.25 22.608-89.024 0-1.257 0.164-2.2 0.473-2.83 0.314-0.624 0.467-1.57 0.467-2.826 0.001-7.543-2.82-11.468-8.474-11.78z m73.951-11.304c-4.711 35.484-13.034 71.758-24.965 108.811-11.94 37.055-29.833 71.918-53.703 104.564-13.185 18.217-29.513 33.917-48.99 47.104a291.086 291.086 0 0 1-62.173 32.04c-21.984 8.165-44.28 13.969-66.891 17.423-22.609 3.454-44.28 4.237-65.005 2.355-6.903-0.624-12.716-5.498-17.427-14.601-4.71-9.103-7.063-17.114-7.063-24.02v-454.087c0-11.309 4.08-21.041 12.246-29.204 8.167-8.162 17.892-12.244 29.202-12.244h16.96c0 15.698 2.982 30.62 8.95 44.75 5.97 14.132 14.131 26.526 24.495 37.207 10.366 10.679 22.45 19.163 36.27 25.44 13.815 6.28 28.886 9.423 45.214 9.423 16.334 0 31.874-2.2 46.637-6.597 14.76-4.396 27.64-11.303 38.62-20.723 10.995-9.423 19.789-21.668 26.384-36.742 6.59-15.075 9.886-33.292 9.886-54.642h38.63c3.766 0 6.754 1.886 8.954 5.65 2.19 3.772 4.08 8.325 5.644 13.668a95.304 95.304 0 0 1 3.3 16.012c0.63 5.34 0.942 9.896 0.942 13.662 0 19.469 0.159 44.596 0.47 75.37 0.32 30.764-1.884 63.893-6.595 99.38h0.008z m-168.163-164.39c16.326 0 30.461-5.966 42.394-17.903 11.935-11.935 17.9-26.057 17.9-42.394 0-16.953-5.967-31.399-17.9-43.327-11.933-11.938-26.062-17.904-42.394-17.904-16.952 0-31.246 5.966-42.866 17.904-11.618 11.933-17.427 26.373-17.427 43.327 0 16.335 5.81 30.46 17.427 42.394 11.62 11.937 25.907 17.902 42.866 17.902z m-648.15 0.937c-16.958 0-31.251-5.966-42.866-17.894-11.622-11.934-17.427-26.376-17.427-43.342 0-16.318 5.805-30.453 17.427-42.39 11.617-11.935 25.908-17.901 42.866-17.901s31.245 5.967 42.865 17.9c11.622 11.937 17.424 26.066 17.424 42.391 0 16.958-5.807 31.41-17.424 43.342-11.62 11.928-25.908 17.894-42.865 17.894z m240.683 590.689c4.677-16.642 7.037-33.955 7.037-51.937 0-27.427-5.217-53.075-15.657-76.927-10.435-23.852-24.597-44.722-42.482-62.61-17.89-17.885-38.752-31.905-62.61-42.038-23.856-10.134-49.192-15.202-76.03-15.202-27.43 0-53.07 5.068-76.921 15.202-23.853 10.135-44.72 24.153-62.61 42.038-17.89 17.888-32.05 38.758-42.483 62.61-10.438 23.852-15.657 49.495-15.657 76.927 0 2.997 0.078 5.971 0.201 8.932-8.977-11.017-16.044-23.056-21.165-36.131-5.656-14.442-8.48-29.204-8.48-44.278v-489.882c0-11.935 3.454-21.042 10.362-27.32 6.914-6.274 15.704-9.422 26.38-9.422h21.67c0 40.194 10.21 70.186 30.618 89.967 20.405 19.785 49.772 29.682 88.081 29.682 40.2 0 69.722-10.678 88.558-32.037 18.841-21.353 28.266-50.559 28.266-87.612H564.88c10.056 0 18.681 3.454 25.908 10.366 7.221 6.905 10.835 15.695 10.835 26.374l-1.885 613.298H430.619z m0 0"  horiz-adv-x="1024" />

    


  </font>
</defs>
</svg>
